<mxfile host="app.diagrams.net" modified="2024-02-13T11:04:39.223Z" agent="Mozilla/5.0 (Windows NT 10.0; Win64; x64) AppleWebKit/537.36 (KHTML, like Gecko) Chrome/121.0.0.0 Safari/537.36" etag="hCNN7zvMgukOaOl31VD2" version="23.1.2" type="device">
  <diagram name="Страница — 1" id="n-bX-CXp-rjFbdDKz4Xl">
    <mxGraphModel dx="1500" dy="813" grid="0" gridSize="10" guides="1" tooltips="1" connect="1" arrows="1" fold="1" page="0" pageScale="1" pageWidth="827" pageHeight="1169" math="0" shadow="0">
      <root>
        <mxCell id="0" />
        <mxCell id="1" parent="0" />
        <mxCell id="06Glb-n01zp1_OK8XZ88-12" style="edgeStyle=orthogonalEdgeStyle;rounded=0;orthogonalLoop=1;jettySize=auto;html=1;exitX=0.5;exitY=1;exitDx=0;exitDy=0;entryX=0.5;entryY=0;entryDx=0;entryDy=0;endArrow=none;endFill=0;" parent="1" source="06Glb-n01zp1_OK8XZ88-1" target="06Glb-n01zp1_OK8XZ88-2" edge="1">
          <mxGeometry relative="1" as="geometry" />
        </mxCell>
        <mxCell id="06Glb-n01zp1_OK8XZ88-13" style="edgeStyle=orthogonalEdgeStyle;rounded=0;orthogonalLoop=1;jettySize=auto;html=1;exitX=0.5;exitY=1;exitDx=0;exitDy=0;entryX=0.5;entryY=0;entryDx=0;entryDy=0;endArrow=none;endFill=0;" parent="1" source="06Glb-n01zp1_OK8XZ88-1" target="06Glb-n01zp1_OK8XZ88-3" edge="1">
          <mxGeometry relative="1" as="geometry" />
        </mxCell>
        <mxCell id="06Glb-n01zp1_OK8XZ88-14" style="edgeStyle=orthogonalEdgeStyle;rounded=0;orthogonalLoop=1;jettySize=auto;html=1;exitX=0.5;exitY=1;exitDx=0;exitDy=0;endArrow=none;endFill=0;" parent="1" source="06Glb-n01zp1_OK8XZ88-1" target="06Glb-n01zp1_OK8XZ88-4" edge="1">
          <mxGeometry relative="1" as="geometry" />
        </mxCell>
        <mxCell id="06Glb-n01zp1_OK8XZ88-15" style="edgeStyle=orthogonalEdgeStyle;rounded=0;orthogonalLoop=1;jettySize=auto;html=1;exitX=0.5;exitY=1;exitDx=0;exitDy=0;endArrow=none;endFill=0;entryX=0.5;entryY=0;entryDx=0;entryDy=0;" parent="1" source="06Glb-n01zp1_OK8XZ88-1" target="06Glb-n01zp1_OK8XZ88-5" edge="1">
          <mxGeometry relative="1" as="geometry">
            <mxPoint x="550" y="180" as="sourcePoint" />
            <Array as="points">
              <mxPoint x="530" y="210" />
              <mxPoint x="920" y="210" />
            </Array>
          </mxGeometry>
        </mxCell>
        <mxCell id="06Glb-n01zp1_OK8XZ88-1" value="Информационная система" style="rounded=0;whiteSpace=wrap;html=1;" parent="1" vertex="1">
          <mxGeometry x="470" y="120" width="120" height="60" as="geometry" />
        </mxCell>
        <mxCell id="06Glb-n01zp1_OK8XZ88-6" style="edgeStyle=orthogonalEdgeStyle;rounded=0;orthogonalLoop=1;jettySize=auto;html=1;exitX=0.5;exitY=1;exitDx=0;exitDy=0;endArrow=none;endFill=0;" parent="1" source="06Glb-n01zp1_OK8XZ88-2" edge="1">
          <mxGeometry relative="1" as="geometry">
            <mxPoint x="180" y="460" as="targetPoint" />
          </mxGeometry>
        </mxCell>
        <mxCell id="06Glb-n01zp1_OK8XZ88-2" value="Модуль маршрутизаии" style="rounded=0;whiteSpace=wrap;html=1;" parent="1" vertex="1">
          <mxGeometry x="120" y="240" width="120" height="60" as="geometry" />
        </mxCell>
        <mxCell id="06Glb-n01zp1_OK8XZ88-7" style="edgeStyle=orthogonalEdgeStyle;rounded=0;orthogonalLoop=1;jettySize=auto;html=1;exitX=0.5;exitY=1;exitDx=0;exitDy=0;endArrow=none;endFill=0;" parent="1" source="06Glb-n01zp1_OK8XZ88-3" edge="1">
          <mxGeometry relative="1" as="geometry">
            <mxPoint x="370" y="510" as="targetPoint" />
          </mxGeometry>
        </mxCell>
        <mxCell id="06Glb-n01zp1_OK8XZ88-3" value="Модуль шаблонизатора" style="rounded=0;whiteSpace=wrap;html=1;" parent="1" vertex="1">
          <mxGeometry x="310" y="240" width="120" height="60" as="geometry" />
        </mxCell>
        <mxCell id="06Glb-n01zp1_OK8XZ88-8" style="edgeStyle=orthogonalEdgeStyle;rounded=0;orthogonalLoop=1;jettySize=auto;html=1;exitX=0.5;exitY=1;exitDx=0;exitDy=0;endArrow=none;endFill=0;" parent="1" source="06Glb-n01zp1_OK8XZ88-4" edge="1">
          <mxGeometry relative="1" as="geometry">
            <mxPoint x="720" y="600" as="targetPoint" />
          </mxGeometry>
        </mxCell>
        <mxCell id="06Glb-n01zp1_OK8XZ88-4" value="Модули обработок" style="rounded=0;whiteSpace=wrap;html=1;" parent="1" vertex="1">
          <mxGeometry x="660" y="240" width="120" height="60" as="geometry" />
        </mxCell>
        <mxCell id="06Glb-n01zp1_OK8XZ88-9" style="edgeStyle=orthogonalEdgeStyle;rounded=0;orthogonalLoop=1;jettySize=auto;html=1;exitX=0.5;exitY=1;exitDx=0;exitDy=0;endArrow=none;endFill=0;" parent="1" source="06Glb-n01zp1_OK8XZ88-5" edge="1">
          <mxGeometry relative="1" as="geometry">
            <mxPoint x="920" y="590" as="targetPoint" />
            <Array as="points">
              <mxPoint x="920" y="520" />
              <mxPoint x="920" y="520" />
            </Array>
          </mxGeometry>
        </mxCell>
        <mxCell id="06Glb-n01zp1_OK8XZ88-5" value="Модуль сессии" style="rounded=0;whiteSpace=wrap;html=1;" parent="1" vertex="1">
          <mxGeometry x="860" y="240" width="120" height="60" as="geometry" />
        </mxCell>
        <mxCell id="bWioTM2hWXZGxEJpIJ1L-1" style="edgeStyle=orthogonalEdgeStyle;rounded=0;orthogonalLoop=1;jettySize=auto;html=1;exitX=1;exitY=0.5;exitDx=0;exitDy=0;endArrow=none;endFill=0;" edge="1" parent="1" source="06Glb-n01zp1_OK8XZ88-16">
          <mxGeometry relative="1" as="geometry">
            <mxPoint x="180" y="350" as="targetPoint" />
          </mxGeometry>
        </mxCell>
        <mxCell id="06Glb-n01zp1_OK8XZ88-16" value="Получение URI запроса" style="rounded=0;whiteSpace=wrap;html=1;fillColor=default;strokeColor=none;" parent="1" vertex="1">
          <mxGeometry x="20" y="320" width="120" height="60" as="geometry" />
        </mxCell>
        <mxCell id="bWioTM2hWXZGxEJpIJ1L-2" style="edgeStyle=orthogonalEdgeStyle;rounded=0;orthogonalLoop=1;jettySize=auto;html=1;exitX=1;exitY=0.5;exitDx=0;exitDy=0;endArrow=none;endFill=0;" edge="1" parent="1" source="bWioTM2hWXZGxEJpIJ1L-3">
          <mxGeometry relative="1" as="geometry">
            <mxPoint x="180" y="400" as="targetPoint" />
          </mxGeometry>
        </mxCell>
        <mxCell id="bWioTM2hWXZGxEJpIJ1L-3" value="Обработка URI запроса контроллером" style="rounded=0;whiteSpace=wrap;html=1;strokeColor=none;" vertex="1" parent="1">
          <mxGeometry x="20" y="370" width="120" height="60" as="geometry" />
        </mxCell>
        <mxCell id="bWioTM2hWXZGxEJpIJ1L-9" style="edgeStyle=orthogonalEdgeStyle;rounded=0;orthogonalLoop=1;jettySize=auto;html=1;exitX=1;exitY=0.5;exitDx=0;exitDy=0;endArrow=none;endFill=0;" edge="1" parent="1" source="bWioTM2hWXZGxEJpIJ1L-10">
          <mxGeometry relative="1" as="geometry">
            <mxPoint x="180" y="460" as="targetPoint" />
          </mxGeometry>
        </mxCell>
        <mxCell id="bWioTM2hWXZGxEJpIJ1L-10" value="Ответ контроллера в формате html cnhfybws или json" style="rounded=0;whiteSpace=wrap;html=1;strokeColor=none;" vertex="1" parent="1">
          <mxGeometry x="20" y="430" width="120" height="60" as="geometry" />
        </mxCell>
        <mxCell id="bWioTM2hWXZGxEJpIJ1L-13" style="edgeStyle=orthogonalEdgeStyle;rounded=0;orthogonalLoop=1;jettySize=auto;html=1;exitX=1;exitY=0.5;exitDx=0;exitDy=0;endArrow=none;endFill=0;" edge="1" parent="1" source="bWioTM2hWXZGxEJpIJ1L-14">
          <mxGeometry relative="1" as="geometry">
            <mxPoint x="370" y="390" as="targetPoint" />
          </mxGeometry>
        </mxCell>
        <mxCell id="bWioTM2hWXZGxEJpIJ1L-14" value="Получает название html страницы, данные, название шаблона для футера и хедера в виде layout, title самой страницы" style="rounded=0;whiteSpace=wrap;html=1;strokeColor=none;" vertex="1" parent="1">
          <mxGeometry x="220" y="320" width="120" height="140" as="geometry" />
        </mxCell>
        <mxCell id="bWioTM2hWXZGxEJpIJ1L-18" style="edgeStyle=orthogonalEdgeStyle;rounded=0;orthogonalLoop=1;jettySize=auto;html=1;exitX=1;exitY=0.5;exitDx=0;exitDy=0;endArrow=none;endFill=0;" edge="1" parent="1" source="bWioTM2hWXZGxEJpIJ1L-15">
          <mxGeometry relative="1" as="geometry">
            <mxPoint x="370" y="509.95238095238096" as="targetPoint" />
          </mxGeometry>
        </mxCell>
        <mxCell id="bWioTM2hWXZGxEJpIJ1L-15" value="Вывод html страницы&lt;span id=&quot;docs-internal-guid-d5048df0-7fff-7661-fb04-355db28b799f&quot;&gt;&lt;/span&gt;" style="rounded=0;whiteSpace=wrap;html=1;strokeColor=none;" vertex="1" parent="1">
          <mxGeometry x="220" y="480" width="120" height="60" as="geometry" />
        </mxCell>
        <mxCell id="bWioTM2hWXZGxEJpIJ1L-21" style="edgeStyle=orthogonalEdgeStyle;rounded=0;orthogonalLoop=1;jettySize=auto;html=1;exitX=1;exitY=0.5;exitDx=0;exitDy=0;endArrow=none;endFill=0;" edge="1" parent="1" source="bWioTM2hWXZGxEJpIJ1L-19">
          <mxGeometry relative="1" as="geometry">
            <mxPoint x="720" y="360.16666666666674" as="targetPoint" />
          </mxGeometry>
        </mxCell>
        <mxCell id="bWioTM2hWXZGxEJpIJ1L-25" style="edgeStyle=orthogonalEdgeStyle;rounded=0;orthogonalLoop=1;jettySize=auto;html=1;exitX=0.5;exitY=1;exitDx=0;exitDy=0;endArrow=none;endFill=0;" edge="1" parent="1" source="bWioTM2hWXZGxEJpIJ1L-19">
          <mxGeometry relative="1" as="geometry">
            <mxPoint x="604" y="500" as="targetPoint" />
          </mxGeometry>
        </mxCell>
        <mxCell id="bWioTM2hWXZGxEJpIJ1L-19" value="Обработка HTTP заголовков" style="rounded=0;whiteSpace=wrap;html=1;" vertex="1" parent="1">
          <mxGeometry x="544" y="330" width="120" height="60" as="geometry" />
        </mxCell>
        <mxCell id="bWioTM2hWXZGxEJpIJ1L-24" style="edgeStyle=orthogonalEdgeStyle;rounded=0;orthogonalLoop=1;jettySize=auto;html=1;exitX=1;exitY=0.5;exitDx=0;exitDy=0;endArrow=none;endFill=0;" edge="1" parent="1" source="bWioTM2hWXZGxEJpIJ1L-22">
          <mxGeometry relative="1" as="geometry">
            <mxPoint x="605" y="440" as="targetPoint" />
          </mxGeometry>
        </mxCell>
        <mxCell id="bWioTM2hWXZGxEJpIJ1L-22" value="Получение HTTP заголовков" style="rounded=0;whiteSpace=wrap;html=1;strokeColor=none;" vertex="1" parent="1">
          <mxGeometry x="440" y="410" width="120" height="60" as="geometry" />
        </mxCell>
        <mxCell id="bWioTM2hWXZGxEJpIJ1L-28" style="edgeStyle=orthogonalEdgeStyle;rounded=0;orthogonalLoop=1;jettySize=auto;html=1;exitX=1;exitY=0.5;exitDx=0;exitDy=0;endArrow=none;endFill=0;" edge="1" parent="1" source="bWioTM2hWXZGxEJpIJ1L-29">
          <mxGeometry relative="1" as="geometry">
            <mxPoint x="605" y="500" as="targetPoint" />
          </mxGeometry>
        </mxCell>
        <mxCell id="bWioTM2hWXZGxEJpIJ1L-29" value="Манипуляции с HTTP заголовками&amp;nbsp;" style="rounded=0;whiteSpace=wrap;html=1;strokeColor=none;" vertex="1" parent="1">
          <mxGeometry x="440" y="470" width="120" height="60" as="geometry" />
        </mxCell>
        <mxCell id="bWioTM2hWXZGxEJpIJ1L-34" style="edgeStyle=orthogonalEdgeStyle;rounded=0;orthogonalLoop=1;jettySize=auto;html=1;exitX=1;exitY=0.5;exitDx=0;exitDy=0;endArrow=none;endFill=0;" edge="1" parent="1" source="bWioTM2hWXZGxEJpIJ1L-36">
          <mxGeometry relative="1" as="geometry">
            <mxPoint x="720" y="600.1666666666667" as="targetPoint" />
          </mxGeometry>
        </mxCell>
        <mxCell id="bWioTM2hWXZGxEJpIJ1L-35" style="edgeStyle=orthogonalEdgeStyle;rounded=0;orthogonalLoop=1;jettySize=auto;html=1;exitX=0.5;exitY=1;exitDx=0;exitDy=0;endArrow=none;endFill=0;" edge="1" parent="1" source="bWioTM2hWXZGxEJpIJ1L-36">
          <mxGeometry relative="1" as="geometry">
            <mxPoint x="604" y="830" as="targetPoint" />
          </mxGeometry>
        </mxCell>
        <mxCell id="bWioTM2hWXZGxEJpIJ1L-36" value="Обработка маршрутов с динамическими частями" style="rounded=0;whiteSpace=wrap;html=1;" vertex="1" parent="1">
          <mxGeometry x="544" y="570" width="120" height="60" as="geometry" />
        </mxCell>
        <mxCell id="bWioTM2hWXZGxEJpIJ1L-37" style="edgeStyle=orthogonalEdgeStyle;rounded=0;orthogonalLoop=1;jettySize=auto;html=1;exitX=1;exitY=0.5;exitDx=0;exitDy=0;endArrow=none;endFill=0;" edge="1" parent="1" source="bWioTM2hWXZGxEJpIJ1L-38">
          <mxGeometry relative="1" as="geometry">
            <mxPoint x="605" y="680" as="targetPoint" />
          </mxGeometry>
        </mxCell>
        <mxCell id="bWioTM2hWXZGxEJpIJ1L-38" value="Получение uri запроса с параметрами" style="rounded=0;whiteSpace=wrap;html=1;strokeColor=none;" vertex="1" parent="1">
          <mxGeometry x="440" y="650" width="120" height="60" as="geometry" />
        </mxCell>
        <mxCell id="bWioTM2hWXZGxEJpIJ1L-39" style="edgeStyle=orthogonalEdgeStyle;rounded=0;orthogonalLoop=1;jettySize=auto;html=1;exitX=1;exitY=0.5;exitDx=0;exitDy=0;endArrow=none;endFill=0;" edge="1" parent="1" source="bWioTM2hWXZGxEJpIJ1L-40">
          <mxGeometry relative="1" as="geometry">
            <mxPoint x="605" y="760" as="targetPoint" />
            <Array as="points">
              <mxPoint x="605" y="760" />
            </Array>
          </mxGeometry>
        </mxCell>
        <mxCell id="bWioTM2hWXZGxEJpIJ1L-40" value="Обработка uri запроса с контроллером и передача параметров" style="rounded=0;whiteSpace=wrap;html=1;strokeColor=none;" vertex="1" parent="1">
          <mxGeometry x="440" y="710" width="120" height="100" as="geometry" />
        </mxCell>
        <mxCell id="bWioTM2hWXZGxEJpIJ1L-41" style="edgeStyle=orthogonalEdgeStyle;rounded=0;orthogonalLoop=1;jettySize=auto;html=1;exitX=1;exitY=0.5;exitDx=0;exitDy=0;endArrow=none;endFill=0;" edge="1" parent="1" source="bWioTM2hWXZGxEJpIJ1L-42">
          <mxGeometry relative="1" as="geometry">
            <mxPoint x="605" y="830" as="targetPoint" />
          </mxGeometry>
        </mxCell>
        <mxCell id="bWioTM2hWXZGxEJpIJ1L-42" value="Ответ контроллера в формате html страницы или json" style="rounded=0;whiteSpace=wrap;html=1;strokeColor=none;" vertex="1" parent="1">
          <mxGeometry x="440" y="800" width="120" height="60" as="geometry" />
        </mxCell>
        <mxCell id="bWioTM2hWXZGxEJpIJ1L-45" style="edgeStyle=orthogonalEdgeStyle;rounded=0;orthogonalLoop=1;jettySize=auto;html=1;exitX=1;exitY=0.5;exitDx=0;exitDy=0;endArrow=none;endFill=0;" edge="1" parent="1" source="bWioTM2hWXZGxEJpIJ1L-46">
          <mxGeometry relative="1" as="geometry">
            <mxPoint x="920" y="360" as="targetPoint" />
          </mxGeometry>
        </mxCell>
        <mxCell id="bWioTM2hWXZGxEJpIJ1L-46" value="Инициализация сессии" style="rounded=0;whiteSpace=wrap;html=1;strokeColor=none;" vertex="1" parent="1">
          <mxGeometry x="760" y="330" width="120" height="60" as="geometry" />
        </mxCell>
        <mxCell id="bWioTM2hWXZGxEJpIJ1L-47" style="edgeStyle=orthogonalEdgeStyle;rounded=0;orthogonalLoop=1;jettySize=auto;html=1;exitX=1;exitY=0.5;exitDx=0;exitDy=0;endArrow=none;endFill=0;" edge="1" parent="1" source="bWioTM2hWXZGxEJpIJ1L-48">
          <mxGeometry relative="1" as="geometry">
            <mxPoint x="920" y="420" as="targetPoint" />
          </mxGeometry>
        </mxCell>
        <mxCell id="bWioTM2hWXZGxEJpIJ1L-48" value="Присвоение уникального идентификатора сессии" style="rounded=0;whiteSpace=wrap;html=1;strokeColor=none;" vertex="1" parent="1">
          <mxGeometry x="760" y="390" width="120" height="60" as="geometry" />
        </mxCell>
        <mxCell id="bWioTM2hWXZGxEJpIJ1L-49" style="edgeStyle=orthogonalEdgeStyle;rounded=0;orthogonalLoop=1;jettySize=auto;html=1;exitX=1;exitY=0.5;exitDx=0;exitDy=0;endArrow=none;endFill=0;" edge="1" parent="1" source="bWioTM2hWXZGxEJpIJ1L-50">
          <mxGeometry relative="1" as="geometry">
            <mxPoint x="920" y="480" as="targetPoint" />
          </mxGeometry>
        </mxCell>
        <mxCell id="bWioTM2hWXZGxEJpIJ1L-50" value="Сохранение состояние" style="rounded=0;whiteSpace=wrap;html=1;strokeColor=none;" vertex="1" parent="1">
          <mxGeometry x="760" y="450" width="120" height="60" as="geometry" />
        </mxCell>
        <mxCell id="bWioTM2hWXZGxEJpIJ1L-51" style="edgeStyle=orthogonalEdgeStyle;rounded=0;orthogonalLoop=1;jettySize=auto;html=1;exitX=1;exitY=0.5;exitDx=0;exitDy=0;endArrow=none;endFill=0;" edge="1" parent="1" source="bWioTM2hWXZGxEJpIJ1L-52">
          <mxGeometry relative="1" as="geometry">
            <mxPoint x="920" y="540" as="targetPoint" />
          </mxGeometry>
        </mxCell>
        <mxCell id="bWioTM2hWXZGxEJpIJ1L-52" value="Передача данных сессии между запросами" style="rounded=0;whiteSpace=wrap;html=1;strokeColor=none;" vertex="1" parent="1">
          <mxGeometry x="760" y="510" width="120" height="60" as="geometry" />
        </mxCell>
        <mxCell id="bWioTM2hWXZGxEJpIJ1L-55" style="edgeStyle=orthogonalEdgeStyle;rounded=0;orthogonalLoop=1;jettySize=auto;html=1;exitX=1;exitY=0.5;exitDx=0;exitDy=0;endArrow=none;endFill=0;" edge="1" parent="1" source="bWioTM2hWXZGxEJpIJ1L-56">
          <mxGeometry relative="1" as="geometry">
            <mxPoint x="920" y="590" as="targetPoint" />
          </mxGeometry>
        </mxCell>
        <mxCell id="bWioTM2hWXZGxEJpIJ1L-56" value="Завершение сессии" style="rounded=0;whiteSpace=wrap;html=1;strokeColor=none;" vertex="1" parent="1">
          <mxGeometry x="760" y="560" width="120" height="60" as="geometry" />
        </mxCell>
      </root>
    </mxGraphModel>
  </diagram>
</mxfile>
